<?xml version="1.0" encoding="utf-8"?>
<!-- Generator: Adobe Illustrator 18.0.0, SVG Export Plug-In . SVG Version: 6.00 Build 0)  -->
<!DOCTYPE svg PUBLIC "-//W3C//DTD SVG 1.1//EN" "http://www.w3.org/Graphics/SVG/1.1/DTD/svg11.dtd">
<svg version="1.1" id="Layer_1" xmlns="http://www.w3.org/2000/svg" xmlns:xlink="http://www.w3.org/1999/xlink" x="0px" y="0px"
	 viewBox="0 0 100.2 31.3" enable-background="new 0 0 100.2 31.3" xml:space="preserve">
<path fill="#434244" d="M37.7,14.1c-0.1-0.1-0.1-0.2-0.1-0.3c0-0.2,0.1-0.3,0.3-0.3c0.1,0,0.2,0,0.2,0.1c0.3,0.3,0.7,0.4,1.1,0.4
	s0.7-0.2,0.7-0.5v0c0-0.3-0.2-0.5-0.9-0.6c-0.9-0.2-1.3-0.5-1.3-1.3v0c0-0.7,0.6-1.2,1.4-1.2c0.5,0,0.9,0.1,1.3,0.4
	c0.1,0,0.2,0.2,0.2,0.3c0,0.2-0.1,0.3-0.3,0.3c-0.1,0-0.1,0-0.2-0.1C39.6,11.1,39.3,11,39,11c-0.4,0-0.7,0.2-0.7,0.5v0
	c0,0.3,0.2,0.5,1,0.7c0.9,0.2,1.3,0.5,1.3,1.2v0c0,0.8-0.6,1.3-1.4,1.3C38.6,14.7,38.1,14.5,37.7,14.1"/>
<path fill="#434244" d="M41,14.1l1.5-3.5c0.1-0.2,0.2-0.3,0.4-0.3h0c0.2,0,0.3,0.1,0.4,0.3l1.5,3.5c0,0.1,0,0.1,0,0.2
	c0,0.2-0.1,0.4-0.3,0.4c-0.2,0-0.3-0.1-0.3-0.3l-0.3-0.8h-2l-0.3,0.8c-0.1,0.2-0.2,0.2-0.3,0.2c-0.2,0-0.3-0.2-0.3-0.3
	C41,14.2,41,14.2,41,14.1 M43.7,12.9l-0.7-1.7l-0.7,1.7H43.7z"/>
<path fill="#434244" d="M45.6,10.7c0-0.2,0.2-0.4,0.4-0.4c0.2,0,0.4,0.2,0.4,0.4v3.2h1.8c0.2,0,0.3,0.2,0.3,0.3
	c0,0.2-0.1,0.3-0.3,0.3h-2.2c-0.2,0-0.4-0.2-0.4-0.4V10.7z"/>
<path fill="#434244" d="M48.7,14.1l1.5-3.5c0.1-0.2,0.2-0.3,0.4-0.3h0c0.2,0,0.3,0.1,0.4,0.3l1.5,3.5c0,0.1,0,0.1,0,0.2
	c0,0.2-0.1,0.4-0.3,0.4c-0.2,0-0.3-0.1-0.3-0.3l-0.3-0.8h-2l-0.3,0.8c-0.1,0.2-0.2,0.2-0.3,0.2c-0.2,0-0.3-0.2-0.3-0.3
	C48.7,14.2,48.7,14.2,48.7,14.1 M51.4,12.9l-0.7-1.7L50,12.9H51.4z"/>
<path fill="#434244" d="M54.8,10.7c0-0.2,0.2-0.4,0.4-0.4h0.1c0.2,0,0.3,0.1,0.3,0.2l1.2,2l1.2-2c0.1-0.1,0.2-0.2,0.3-0.2h0.1
	c0.2,0,0.4,0.2,0.4,0.4v3.5c0,0.2-0.2,0.4-0.4,0.4c-0.2,0-0.4-0.2-0.4-0.4v-2.5l-1,1.6c-0.1,0.1-0.2,0.2-0.3,0.2
	c-0.1,0-0.2-0.1-0.3-0.2l-1-1.5v2.5c0,0.2-0.2,0.4-0.4,0.4c-0.2,0-0.3-0.2-0.3-0.4V10.7z"/>
<path fill="#434244" d="M59.7,10.7c0-0.2,0.2-0.4,0.4-0.4c0.2,0,0.4,0.2,0.4,0.4v3.6c0,0.2-0.2,0.4-0.4,0.4c-0.2,0-0.4-0.2-0.4-0.4
	V10.7z"/>
<path fill="#434244" d="M61.4,10.7c0-0.2,0.2-0.4,0.4-0.4h0.1c0.2,0,0.3,0.1,0.4,0.2l2,2.7v-2.6c0-0.2,0.2-0.4,0.3-0.4
	c0.2,0,0.4,0.2,0.4,0.4v3.6c0,0.2-0.1,0.4-0.3,0.4h0c-0.2,0-0.3-0.1-0.4-0.2l-2.1-2.8v2.7c0,0.2-0.2,0.4-0.3,0.4
	c-0.2,0-0.4-0.2-0.4-0.4V10.7z"/>
<path fill="#434244" d="M65.8,14.2v-3.5c0-0.2,0.2-0.4,0.4-0.4h2.3c0.2,0,0.3,0.2,0.3,0.3c0,0.2-0.1,0.3-0.3,0.3h-2v1.1h1.7
	c0.2,0,0.3,0.2,0.3,0.3c0,0.2-0.1,0.3-0.3,0.3h-1.7v1.1h2c0.2,0,0.3,0.2,0.3,0.3c0,0.2-0.1,0.3-0.3,0.3h-2.4
	C65.9,14.6,65.8,14.4,65.8,14.2"/>
<path fill="#434244" d="M69.5,10.7c0-0.2,0.2-0.4,0.4-0.4c0.2,0,0.4,0.2,0.4,0.4v3.6c0,0.2-0.2,0.4-0.4,0.4c-0.2,0-0.4-0.2-0.4-0.4
	V10.7z"/>
<path fill="#434244" d="M71.1,10.7c0-0.2,0.2-0.4,0.4-0.4h1.4c0.5,0,0.9,0.2,1.2,0.4c0.2,0.2,0.3,0.5,0.3,0.9v0
	c0,0.7-0.4,1.1-0.9,1.3l0.8,1c0.1,0.1,0.1,0.2,0.1,0.3c0,0.2-0.2,0.3-0.3,0.3c-0.2,0-0.3-0.1-0.3-0.2l-1-1.3h-0.9v1.1
	c0,0.2-0.2,0.4-0.4,0.4c-0.2,0-0.4-0.2-0.4-0.4V10.7z M72.9,12.5c0.5,0,0.8-0.3,0.8-0.7v0c0-0.5-0.3-0.7-0.8-0.7h-1v1.4H72.9z"/>
<path fill="#434244" d="M74.9,14.1l1.5-3.5c0.1-0.2,0.2-0.3,0.4-0.3h0c0.2,0,0.3,0.1,0.4,0.3l1.5,3.5c0,0.1,0,0.1,0,0.2
	c0,0.2-0.1,0.4-0.3,0.4c-0.2,0-0.3-0.1-0.3-0.3l-0.3-0.8h-2l-0.3,0.8c-0.1,0.2-0.2,0.2-0.3,0.2c-0.2,0-0.3-0.2-0.3-0.3
	C74.9,14.2,74.9,14.2,74.9,14.1 M77.6,12.9l-0.7-1.7l-0.7,1.7H77.6z"/>
<path fill="#434244" d="M37.8,16.4c0-0.2,0.2-0.4,0.4-0.4h1.1c1.3,0,2.1,0.9,2.1,2.1v0c0,1.2-0.9,2.1-2.1,2.1h-1.1
	c-0.2,0-0.4-0.2-0.4-0.4V16.4z M39.3,19.5c0.8,0,1.4-0.6,1.4-1.4v0c0-0.8-0.6-1.4-1.4-1.4h-0.8v2.9H39.3z"/>
<path fill="#434244" d="M41.9,18.1L41.9,18.1c0-1.2,0.9-2.2,2.1-2.2c1.2,0,2.1,1,2.1,2.2v0c0,1.2-0.9,2.2-2.1,2.2
	C42.8,20.3,41.9,19.3,41.9,18.1 M45.4,18.1L45.4,18.1c0-0.8-0.6-1.5-1.4-1.5c-0.8,0-1.4,0.7-1.4,1.5v0c0,0.8,0.6,1.5,1.4,1.5
	S45.4,18.9,45.4,18.1"/>
<path fill="#D68F35" d="M48.5,19.8v-3.5c0-0.2,0.2-0.4,0.4-0.4h2.5c0.2,0,0.3,0.2,0.3,0.3c0,0.2-0.2,0.3-0.3,0.3h-2.1v1.1H51
	c0.2,0,0.3,0.2,0.3,0.3c0,0.2-0.2,0.3-0.3,0.3h-1.8v1.1h2.1c0.2,0,0.3,0.2,0.3,0.3c0,0.2-0.2,0.3-0.3,0.3h-2.5
	C48.6,20.2,48.5,20.1,48.5,19.8"/>
<path fill="#D68F35" d="M52.4,16.3c0-0.2,0.2-0.4,0.4-0.4h0.1c0.2,0,0.3,0.1,0.3,0.2l1.3,2l1.3-2C55.9,16,56,16,56.1,16h0.1
	c0.2,0,0.4,0.2,0.4,0.4v3.5c0,0.2-0.2,0.4-0.4,0.4c-0.2,0-0.4-0.2-0.4-0.4v-2.5l-1,1.6c-0.1,0.1-0.2,0.2-0.3,0.2
	c-0.1,0-0.2-0.1-0.3-0.2l-1-1.5v2.5c0,0.2-0.2,0.4-0.4,0.4c-0.2,0-0.4-0.2-0.4-0.4V16.3z"/>
<path fill="#D68F35" d="M57.6,16.4c0-0.2,0.2-0.4,0.4-0.4h1.3c1,0,1.6,0.6,1.6,1.4v0c0,0.9-0.8,1.4-1.7,1.4h-0.8v1
	c0,0.2-0.2,0.4-0.4,0.4c-0.2,0-0.4-0.2-0.4-0.4V16.4z M59.2,18.2c0.6,0,0.9-0.3,0.9-0.8v0c0-0.5-0.4-0.8-0.9-0.8h-0.9v1.5H59.2z"/>
<path fill="#D68F35" d="M61.5,16.4c0-0.2,0.2-0.4,0.4-0.4h1.5c0.5,0,0.9,0.2,1.2,0.4c0.2,0.2,0.4,0.5,0.4,0.9v0c0,0.7-0.4,1.1-1,1.3
	l0.8,1c0.1,0.1,0.1,0.2,0.1,0.3c0,0.2-0.2,0.3-0.4,0.3c-0.2,0-0.3-0.1-0.4-0.2l-1-1.3h-0.9v1.1c0,0.2-0.2,0.4-0.4,0.4
	c-0.2,0-0.4-0.2-0.4-0.4V16.4z M63.4,18.1c0.5,0,0.9-0.3,0.9-0.7v0c0-0.5-0.3-0.7-0.9-0.7h-1.1v1.4H63.4z"/>
<path fill="#D68F35" d="M65.8,19.8v-3.5c0-0.2,0.2-0.4,0.4-0.4h2.5c0.2,0,0.3,0.2,0.3,0.3c0,0.2-0.2,0.3-0.3,0.3h-2.1v1.1h1.8
	c0.2,0,0.3,0.2,0.3,0.3c0,0.2-0.2,0.3-0.3,0.3h-1.8v1.1h2.1c0.2,0,0.3,0.2,0.3,0.3c0,0.2-0.2,0.3-0.3,0.3h-2.5
	C66,20.2,65.8,20.1,65.8,19.8"/>
<path fill="#D68F35" d="M69.8,19.8v-3.5c0-0.2,0.2-0.4,0.4-0.4h2.5c0.2,0,0.3,0.2,0.3,0.3c0,0.2-0.2,0.3-0.3,0.3h-2.1v1.1h1.8
	c0.2,0,0.3,0.2,0.3,0.3c0,0.2-0.2,0.3-0.3,0.3h-1.8v1.1h2.1c0.2,0,0.3,0.2,0.3,0.3c0,0.2-0.2,0.3-0.3,0.3h-2.5
	C69.9,20.2,69.8,20.1,69.8,19.8"/>
<path fill="#D68F35" d="M73.7,16.3c0-0.2,0.2-0.4,0.4-0.4h0.1c0.2,0,0.3,0.1,0.4,0.2l2.1,2.7v-2.6c0-0.2,0.2-0.4,0.4-0.4
	c0.2,0,0.4,0.2,0.4,0.4v3.6c0,0.2-0.2,0.4-0.4,0.4h0c-0.2,0-0.3-0.1-0.4-0.2l-2.2-2.8v2.7c0,0.2-0.2,0.4-0.4,0.4
	c-0.2,0-0.4-0.2-0.4-0.4V16.3z"/>
<path fill="#D68F35" d="M78.4,16.4c0-0.2,0.2-0.4,0.4-0.4H80c1.3,0,2.3,0.9,2.3,2.1v0c0,1.2-0.9,2.1-2.3,2.1h-1.2
	c-0.2,0-0.4-0.2-0.4-0.4V16.4z M80,19.5c0.9,0,1.5-0.6,1.5-1.4v0c0-0.8-0.6-1.4-1.5-1.4h-0.8v2.9H80z"/>
<path fill="#D68F35" d="M83.1,19.8v-3.5c0-0.2,0.2-0.4,0.4-0.4h2.5c0.2,0,0.3,0.2,0.3,0.3c0,0.2-0.2,0.3-0.3,0.3h-2.1v1.1h1.8
	c0.2,0,0.3,0.2,0.3,0.3c0,0.2-0.2,0.3-0.3,0.3h-1.8v1.1h2.1c0.2,0,0.3,0.2,0.3,0.3c0,0.2-0.2,0.3-0.3,0.3h-2.5
	C83.2,20.2,83.1,20.1,83.1,19.8"/>
<path fill="#D68F35" d="M87,16.4c0-0.2,0.2-0.4,0.4-0.4h1.2c1.3,0,2.3,0.9,2.3,2.1v0c0,1.2-0.9,2.1-2.3,2.1h-1.2
	c-0.2,0-0.4-0.2-0.4-0.4V16.4z M88.6,19.5c0.9,0,1.5-0.6,1.5-1.4v0c0-0.8-0.6-1.4-1.5-1.4h-0.8v2.9H88.6z"/>
<path fill="#D68F35" d="M91.5,18.1L91.5,18.1c0-1.2,0.9-2.2,2.2-2.2c1.3,0,2.2,1,2.2,2.2v0c0,1.2-0.9,2.2-2.2,2.2
	S91.5,19.3,91.5,18.1 M95.1,18.1L95.1,18.1c0-0.8-0.6-1.5-1.4-1.5s-1.4,0.7-1.4,1.5v0c0,0.8,0.6,1.5,1.4,1.5S95.1,18.9,95.1,18.1"/>
<path fill="#D68F35" d="M96.7,16.4c0-0.2,0.2-0.4,0.4-0.4h1.5c0.5,0,0.9,0.2,1.2,0.4c0.2,0.2,0.4,0.5,0.4,0.9v0c0,0.7-0.4,1.1-1,1.3
	l0.8,1c0.1,0.1,0.1,0.2,0.1,0.3c0,0.2-0.2,0.3-0.4,0.3c-0.2,0-0.3-0.1-0.4-0.2l-1-1.3h-0.9v1.1c0,0.2-0.2,0.4-0.4,0.4
	c-0.2,0-0.4-0.2-0.4-0.4V16.4z M98.6,18.1c0.5,0,0.9-0.3,0.9-0.7v0c0-0.5-0.3-0.7-0.9-0.7h-1.1v1.4H98.6z"/>
<path fill="#434244" d="M31,31.3h-5.7c-0.2,0-0.3-0.2-0.3-0.3v-5.8c-3,0.2-5.4,2.7-5.4,5.8c0,0.2-0.1,0.3-0.3,0.3
	c-0.2,0-0.3-0.1-0.3-0.3c0-3.1-2.4-5.6-5.4-5.8V31c0,0.2-0.1,0.3-0.3,0.3H0.3C0.1,31.3,0,31.2,0,31V0.3C0,0.1,0.1,0,0.3,0H31
	c0.2,0,0.3,0.1,0.3,0.3V31C31.3,31.2,31.2,31.3,31,31.3 M25.6,30.7h5v-30h-30v30h12.1v-5.8c0-0.2,0.2-0.3,0.3-0.3
	c2.8,0,5.3,1.8,6.1,4.4c0.9-2.6,3.3-4.4,6.1-4.4c0.2,0,0.3,0.1,0.3,0.3V30.7z"/>
</svg>
